<svg xmlns="http://www.w3.org/2000/svg" viewBox="0 0 120 120" role="img" aria-label="FoundrySwift mark">
  <defs><linearGradient id="ember" gradientUnits="userSpaceOnUse" x1="30" y1="6" x2="30" y2="54"><stop offset="0" stop-color="#FFD76B"/><stop offset=".5" stop-color="#FF8A3D"/><stop offset="1" stop-color="#FF6A13"/></linearGradient></defs>
  <polygon points="60,12 101,36 101,84 60,108 19,84 19,36" fill="none" stroke="#3A4250" stroke-width="4" stroke-linejoin="round"/><polygon points="60,12 101,36 101,84 60,108 19,84 19,36" fill="none" stroke="#6B7686" stroke-width="1.3" stroke-linejoin="round" opacity="0.7"/>
  <g transform="translate(60,60) scale(1.02) translate(-29.695,-29.695)"><path fill="url(#ember)" stroke="#ECE7DC" stroke-width="0.8" d="M47.0606,36.6607c-0.0014-0.0018-0.0027-0.0031-0.0042-0.0048c0.0657-0.2236,0.1335-0.4458,0.191-0.675c2.465-9.8209-3.5511-21.4319-13.7316-27.5454c4.4613,6.0479,6.4339,13.3733,4.6813,19.7795c-0.1563,0.5714-0.3442,1.1198-0.5519,1.6528c-0.2254-0.1481-0.5094-0.3162-0.8908-0.5265c0,0-10.1269-6.2527-21.1028-17.3122c-0.288-0.2903,5.8528,8.777,12.8219,16.1399c-3.2834-1.8427-12.4338-8.5004-18.2266-13.8023c0.7117,1.1869,1.5582,2.3298,2.4887,3.4301c4.8375,6.1349,11.1462,13.7044,18.7043,19.5169c-5.3104,3.2498-12.8141,3.5025-20.2852,0.0034c-1.8479-0.866-3.5851-1.9109-5.1932-3.0981c3.1625,5.0585,8.0332,9.4229,13.9613,11.9708c7.0695,3.0381,14.0996,2.8321,19.3356,0.0498l-0.0041,0.006c0.0239-0.0151,0.0543-0.0316,0.0791-0.0469c0.215-0.1156,0.4284-0.2333,0.6371-0.3576c2.5157-1.3058,7.4847-2.6306,10.1518,2.5588C50.7755,49.6699,52.1635,42.9395,47.0606,36.6607z"/></g>
</svg>
