<svg xmlns="http://www.w3.org/2000/svg" viewBox="0 0 320 208" role="img" aria-label="FoundrySwift">
  <defs><linearGradient id="ember" gradientUnits="userSpaceOnUse" x1="30" y1="6" x2="30" y2="54"><stop offset="0" stop-color="#FFD76B"/><stop offset=".5" stop-color="#FF8A3D"/><stop offset="1" stop-color="#FF6A13"/></linearGradient><linearGradient id="bg" x1="0" y1="0" x2="0" y2="1"><stop offset="0" stop-color="#222732"/><stop offset="1" stop-color="#14161B"/></linearGradient><linearGradient id="word" gradientUnits="userSpaceOnUse" x1="0" y1="138.6" x2="0" y2="170.4"><stop offset="0" stop-color="#ECE7DC"/><stop offset="1" stop-color="#7E8794"/></linearGradient><radialGradient id="glow" cx="0.5" cy="0.52" r="0.5"><stop offset="0" stop-color="#FF6A13" stop-opacity="0.5"/><stop offset="1" stop-color="#FF6A13" stop-opacity="0"/></radialGradient></defs>
  <g transform="translate(98.8,8) scale(1.02)"><polygon points="60,12 101,36 101,84 60,108 19,84 19,36" fill="none" stroke="#3A4250" stroke-width="4" stroke-linejoin="round"/><polygon points="60,12 101,36 101,84 60,108 19,84 19,36" fill="none" stroke="#6B7686" stroke-width="1.3" stroke-linejoin="round" opacity="0.7"/><ellipse cx="60" cy="60" rx="30" ry="26" fill="url(#glow)"/><g transform="translate(60,60) scale(1.02) translate(-29.695,-29.695)"><path fill="url(#ember)" stroke="#ECE7DC" stroke-width="0.8" d="M47.0606,36.6607c-0.0014-0.0018-0.0027-0.0031-0.0042-0.0048c0.0657-0.2236,0.1335-0.4458,0.191-0.675c2.465-9.8209-3.5511-21.4319-13.7316-27.5454c4.4613,6.0479,6.4339,13.3733,4.6813,19.7795c-0.1563,0.5714-0.3442,1.1198-0.5519,1.6528c-0.2254-0.1481-0.5094-0.3162-0.8908-0.5265c0,0-10.1269-6.2527-21.1028-17.3122c-0.288-0.2903,5.8528,8.777,12.8219,16.1399c-3.2834-1.8427-12.4338-8.5004-18.2266-13.8023c0.7117,1.1869,1.5582,2.3298,2.4887,3.4301c4.8375,6.1349,11.1462,13.7044,18.7043,19.5169c-5.3104,3.2498-12.8141,3.5025-20.2852,0.0034c-1.8479-0.866-3.5851-1.9109-5.1932-3.0981c3.1625,5.0585,8.0332,9.4229,13.9613,11.9708c7.0695,3.0381,14.0996,2.8321,19.3356,0.0498l-0.0041,0.006c0.0239-0.0151,0.0543-0.0316,0.0791-0.0469c0.215-0.1156,0.4284-0.2333,0.6371-0.3576c2.5157-1.3058,7.4847-2.6306,10.1518,2.5588C50.7755,49.6699,52.1635,42.9395,47.0606,36.6607z"/></g></g>
  <g transform="translate(29.46,170.40) scale(0.04550,-0.04550)" fill="url(#word)"><path d="M269.0 700V0H119.0V700ZM496.0 366V324H266.0V366ZM545.0 700V657H266.0V700ZM496.0 326V230H486.0V238Q486.0 275 462.0 299.0Q438.0 323 401.0 324V326ZM496.0 460V364H401.0V366Q438.0 367 462.0 391.5Q486.0 416 486.0 453V460ZM545.0 660V549H535.0V559Q535.0 604 508.5 630.5Q482.0 657 437.0 657V660ZM545.0 718V689L423.0 700Q445.0 700 469.5 703.0Q494.0 706 515.0 710.0Q536.0 714 545.0 718ZM122.0 73V0H42.0V10Q42.0 10 48.5 10.0Q55.0 10 55.0 10Q81.0 10 99.5 28.5Q118.0 47 119.0 73ZM122.0 627H119.0Q118.0 653 99.5 671.5Q81.0 690 55.0 690Q55.0 690 48.5 690.0Q42.0 690 42.0 690V700H122.0ZM266.0 73H269.0Q270.0 47 288.5 28.5Q307.0 10 333.0 10Q333.0 10 339.0 10.0Q345.0 10 346.0 10V0H266.0Z M1088.0 714Q1208.0 714 1296.5 669.5Q1385.0 625 1433.5 544.0Q1482.0 463 1482.0 350Q1482.0 238 1433.5 156.5Q1385.0 75 1296.5 30.5Q1208.0 -14 1088.0 -14Q968.0 -14 879.5 30.5Q791.0 75 743.0 156.0Q695.0 237 695.0 350Q695.0 462 743.0 543.5Q791.0 625 879.5 669.5Q968.0 714 1088.0 714ZM1088.0 28Q1159.0 28 1210.0 67.5Q1261.0 107 1289.0 179.0Q1317.0 251 1317.0 350Q1317.0 449 1289.0 521.0Q1261.0 593 1210.0 632.5Q1159.0 672 1088.0 672Q1018.0 672 966.5 632.5Q915.0 593 887.0 521.0Q859.0 449 859.0 350Q859.0 251 887.0 179.0Q915.0 107 966.5 67.5Q1018.0 28 1088.0 28Z M1832.0 700V260Q1832.0 189 1855.5 137.0Q1879.0 85 1922.5 57.0Q1966.0 29 2026.0 29Q2087.0 29 2131.5 55.5Q2176.0 82 2200.0 131.0Q2224.0 180 2224.0 247V700H2296.0V253Q2296.0 171 2261.5 111.0Q2227.0 51 2162.5 18.5Q2098.0 -14 2007.0 -14Q1901.0 -14 1828.0 18.5Q1755.0 51 1718.5 110.5Q1682.0 170 1682.0 252V700ZM1685.0 700V640H1682.0Q1682.0 662 1666.5 676.0Q1651.0 690 1629.0 690Q1629.0 690 1621.0 690.0Q1613.0 690 1613.0 690V700ZM1901.0 700V690Q1901.0 690 1893.0 690.0Q1885.0 690 1885.0 690Q1863.0 690 1847.5 676.0Q1832.0 662 1832.0 640H1830.0V700ZM2227.0 700V640H2224.0Q2224.0 662 2208.5 676.0Q2193.0 690 2171.0 690Q2171.0 690 2163.0 690.0Q2155.0 690 2155.0 690V700ZM2365.0 700V690Q2365.0 690 2357.0 690.0Q2349.0 690 2349.0 690Q2327.0 690 2311.5 676.0Q2296.0 662 2296.0 640H2294.0V700Z M2554.0 715 3192.0 107 3204.0 -14 2566.0 593ZM2559.0 71V0H2476.0V10Q2476.0 10 2485.0 10.0Q2494.0 10 2495.0 10Q2520.0 10 2538.0 28.0Q2556.0 46 2556.0 71ZM2699.0 71Q2699.0 46 2717.0 28.0Q2735.0 10 2760.0 10Q2761.0 10 2770.0 10.0Q2779.0 10 2779.0 10V0H2696.0V71ZM2554.0 715 2698.0 562 2699.0 0H2556.0V590Q2556.0 646 2550.0 680.5Q2544.0 715 2544.0 715ZM3201.0 700V114Q3201.0 77 3204.0 47.5Q3207.0 18 3210.0 2.0Q3213.0 -14 3213.0 -14H3204.0L3059.0 148V700ZM3281.0 700V690Q3281.0 690 3272.0 690.0Q3263.0 690 3263.0 690Q3238.0 690 3220.0 672.5Q3202.0 655 3201.0 629H3198.0V700ZM2978.0 700H3061.0V629H3059.0Q3058.0 655 3040.5 672.5Q3023.0 690 2997.0 690Q2997.0 690 2988.0 690.0Q2979.0 690 2978.0 690Z M3766.0 700Q3884.0 700 3970.0 657.5Q4056.0 615 4102.5 536.5Q4149.0 458 4149.0 350Q4149.0 242 4102.5 163.5Q4056.0 85 3970.0 42.5Q3884.0 0 3766.0 0H3528.0L3527.0 42Q3556.0 42 3587.5 42.0Q3619.0 42 3649.0 42.0Q3679.0 42 3702.5 42.0Q3726.0 42 3740.0 42.0Q3754.0 42 3754.0 42Q3826.0 42 3878.0 79.5Q3930.0 117 3958.0 186.0Q3986.0 255 3986.0 350Q3986.0 445 3958.0 514.0Q3930.0 583 3878.0 620.5Q3826.0 658 3754.0 658Q3754.0 658 3739.5 658.0Q3725.0 658 3700.0 658.0Q3675.0 658 3644.0 658.0Q3613.0 658 3580.0 658.0Q3547.0 658 3517.0 658V700ZM3630.0 700V0H3480.0V700ZM3483.0 73V0H3403.0V10Q3403.0 10 3409.5 10.0Q3416.0 10 3416.0 10Q3442.0 10 3460.5 28.5Q3479.0 47 3480.0 73ZM3483.0 627H3480.0Q3480.0 653 3461.0 671.5Q3442.0 690 3416.0 690Q3416.0 690 3410.0 690.0Q3404.0 690 3404.0 690L3403.0 700H3483.0Z M4498.0 700H4627.0Q4672.0 700 4715.0 690.0Q4758.0 680 4791.5 658.0Q4825.0 636 4845.0 600.0Q4865.0 564 4865.0 511Q4865.0 469 4847.5 427.5Q4830.0 386 4794.0 356.5Q4758.0 327 4701.0 321Q4733.0 311 4759.5 285.0Q4786.0 259 4803.0 233Q4804.0 231 4814.5 215.0Q4825.0 199 4840.5 175.5Q4856.0 152 4873.0 128.0Q4890.0 104 4904.0 86Q4926.0 59 4944.0 42.5Q4962.0 26 4982.0 18.5Q5002.0 11 5028.0 10V0H4930.0Q4876.0 0 4832.0 9.5Q4788.0 19 4754.0 42.0Q4720.0 65 4695.0 104Q4687.0 116 4677.5 134.5Q4668.0 153 4658.0 174.0Q4648.0 195 4638.5 214.5Q4629.0 234 4622.0 250.0Q4615.0 266 4612.0 275Q4599.0 307 4581.5 323.0Q4564.0 339 4544.0 342V352Q4547.0 352 4556.0 352.0Q4565.0 352 4575.0 352Q4602.0 352 4627.5 363.0Q4653.0 374 4673.0 399.0Q4693.0 424 4701.0 468Q4703.0 477 4704.5 489.0Q4706.0 501 4705.0 516Q4702.0 588 4669.0 621.5Q4636.0 655 4587.0 656Q4573.0 657 4556.5 656.5Q4540.0 656 4526.5 656.0Q4513.0 656 4508.0 656Q4508.0 657 4505.5 667.5Q4503.0 678 4500.5 689.0Q4498.0 700 4498.0 700ZM4511.0 700V0H4361.0V700ZM4364.0 73V0H4284.0V10Q4285.0 10 4290.5 10.0Q4296.0 10 4297.0 10Q4323.0 10 4341.5 28.5Q4360.0 47 4361.0 73ZM4364.0 627H4361.0Q4360.0 653 4341.5 671.5Q4323.0 690 4297.0 690Q4296.0 690 4290.5 690.0Q4285.0 690 4284.0 690V700H4364.0ZM4508.0 73H4511.0Q4511.0 47 4530.0 28.5Q4549.0 10 4575.0 10Q4577.0 10 4582.0 10.0Q4587.0 10 4587.0 10V0H4508.0Z M5249.0 699 5454.0 327 5312.0 313 5078.0 699ZM5459.0 322V0H5309.0V322ZM5620.0 699H5698.0L5449.0 302L5398.0 312ZM5579.0 628Q5588.0 642 5584.0 656.5Q5580.0 671 5569.0 680.5Q5558.0 690 5544.0 690Q5544.0 690 5538.0 690.0Q5532.0 690 5532.0 690V700H5771.0V690H5757.0Q5726.0 690 5698.5 672.0Q5671.0 654 5656.0 631ZM5288.0 628 5119.0 631Q5105.0 654 5078.0 672.0Q5051.0 690 5019.0 690H5005.0V700H5336.0V690Q5336.0 690 5329.5 690.0Q5323.0 690 5323.0 690Q5301.0 690 5289.5 669.5Q5278.0 649 5288.0 628ZM5312.0 73V0H5232.0V10Q5232.0 10 5238.0 10.0Q5244.0 10 5245.0 10Q5271.0 10 5289.5 28.5Q5308.0 47 5309.0 73ZM5456.0 73H5459.0Q5459.0 47 5478.0 28.5Q5497.0 10 5523.0 10Q5523.0 10 5529.0 10.0Q5535.0 10 5535.0 10V0H5456.0Z"/></g>
  <g transform="translate(120.00,192.40) scale(0.01820,-0.01820)" fill="#FF8A3D"><path d="M268.0 714Q287.0 714 313.0 712.0Q339.0 710 365.5 706.5Q392.0 703 413.0 699.5Q434.0 696 442.0 692L434.0 565H424.0Q424.0 616 387.5 646.0Q351.0 676 293.0 676Q235.0 676 200.5 646.0Q166.0 616 165.0 573Q163.0 548 179.5 524.5Q196.0 501 224.0 481L417.0 338Q458.0 311 477.0 272.5Q496.0 234 494.0 186Q491.0 94 427.5 40.0Q364.0 -14 255.0 -14Q218.0 -14 179.5 -7.5Q141.0 -1 109.0 12.5Q77.0 26 58.0 45Q52.0 65 53.0 93.5Q54.0 122 61.0 152.5Q68.0 183 78.0 204H87.0Q83.0 153 104.0 111.5Q125.0 70 165.5 46.5Q206.0 23 261.0 24Q323.0 26 360.5 59.0Q398.0 92 398.0 144Q398.0 174 382.0 198.5Q366.0 223 332.0 243L151.0 380Q105.0 410 85.5 452.5Q66.0 495 69.0 541Q72.0 589 96.0 628.5Q120.0 668 163.5 691.0Q207.0 714 268.0 714ZM443.0 704 442.0 683H338.0V704Z M910.0 694H1045.0L1214.0 194L1168.0 -16ZM1392.0 716 1407.0 623 1201.0 95Q1201.0 95 1195.0 78.0Q1189.0 61 1183.5 35.5Q1178.0 10 1177.0 -16H1168.0L1144.0 93L1383.0 716ZM1392.0 715 1609.0 195 1570.0 -16 1335.0 546ZM1786.0 694 1598.0 95Q1598.0 95 1593.0 77.0Q1588.0 59 1583.5 33.5Q1579.0 8 1579.0 -16H1570.0L1547.0 83L1721.0 694ZM1702.0 628Q1710.0 658 1697.0 674.0Q1684.0 690 1664.0 690H1655.0V700H1861.0V690Q1861.0 690 1857.0 690.0Q1853.0 690 1853.0 690Q1830.0 690 1803.0 675.5Q1776.0 661 1765.0 628ZM1069.0 628H934.0Q921.0 661 895.0 675.5Q869.0 690 846.0 690Q846.0 690 842.0 690.0Q838.0 690 838.0 690V700H1115.0V690H1106.0Q1087.0 690 1072.5 674.0Q1058.0 658 1069.0 628Z M2406.0 700V0H2284.0V700ZM2287.0 73V0H2207.0V10Q2207.0 10 2213.5 10.0Q2220.0 10 2220.0 10Q2246.0 10 2264.5 28.5Q2283.0 47 2284.0 73ZM2287.0 627H2284.0Q2283.0 653 2264.5 671.5Q2246.0 690 2220.0 690Q2220.0 690 2213.5 690.0Q2207.0 690 2207.0 690V700H2287.0ZM2403.0 73H2406.0Q2407.0 47 2425.5 28.5Q2444.0 10 2470.0 10Q2470.0 10 2476.0 10.0Q2482.0 10 2483.0 10V0H2403.0ZM2403.0 627V700H2483.0V690Q2482.0 690 2476.0 690.0Q2470.0 690 2470.0 690Q2444.0 690 2425.5 671.5Q2407.0 653 2406.0 627Z M3096.0 700V0H2974.0V700ZM3323.0 364V326H3093.0V364ZM3370.0 700V661H3093.0V700ZM3323.0 328V242H3313.0V253Q3313.0 284 3292.0 305.0Q3271.0 326 3240.0 326V328ZM3323.0 448V362H3240.0V364Q3271.0 365 3292.0 386.0Q3313.0 407 3313.0 438V448ZM3370.0 664V567H3360.0V580Q3360.0 616 3337.5 638.5Q3315.0 661 3278.0 661V664ZM3370.0 718V689L3248.0 700Q3270.0 700 3294.5 703.0Q3319.0 706 3340.0 710.0Q3361.0 714 3370.0 718ZM2977.0 73V0H2897.0V10Q2897.0 10 2903.5 10.0Q2910.0 10 2910.0 10Q2936.0 10 2954.5 28.5Q2973.0 47 2974.0 73ZM2977.0 627H2974.0Q2973.0 653 2954.5 671.5Q2936.0 690 2910.0 690Q2910.0 690 2903.5 690.0Q2897.0 690 2897.0 690V700H2977.0ZM3093.0 73H3096.0Q3097.0 47 3115.5 28.5Q3134.0 10 3160.0 10Q3160.0 10 3166.0 10.0Q3172.0 10 3173.0 10V0H3093.0Z M4133.0 697V0H4011.0V697ZM4381.0 701V663H3762.0V701ZM4381.0 666V561L4371.0 562V575Q4371.0 614 4347.0 638.0Q4323.0 662 4284.0 663V666ZM4381.0 719V690L4259.0 701Q4281.0 701 4305.5 704.0Q4330.0 707 4351.0 711.0Q4372.0 715 4381.0 719ZM4014.0 73V0H3934.0V10Q3934.0 10 3940.5 10.0Q3947.0 10 3947.0 10Q3973.0 10 3991.5 28.5Q4010.0 47 4011.0 73ZM4130.0 73H4133.0Q4134.0 47 4152.5 28.5Q4171.0 10 4197.0 10Q4197.0 10 4203.5 10.0Q4210.0 10 4210.0 10V0H4130.0ZM3859.0 666V663Q3820.0 662 3796.0 638.0Q3772.0 614 3772.0 575V562L3762.0 561V666ZM3762.0 719Q3772.0 715 3792.5 711.0Q3813.0 707 3838.0 704.0Q3863.0 701 3884.0 701L3762.0 690Z"/></g>
</svg>
