<svg xmlns="http://www.w3.org/2000/svg" width="1280" height="640" viewBox="0 0 1280 640" role="img" aria-label="FoundrySwift — Swift bindings for Foundry">
  <defs>
    <linearGradient id="bg" x1="0" y1="0" x2="0" y2="1">
      <stop offset="0" stop-color="#1B1E25"/>
      <stop offset="1" stop-color="#14161B"/>
    </linearGradient>
    <radialGradient id="glow" cx="0.5" cy="0.5" r="0.5">
      <stop offset="0" stop-color="#FF6A13" stop-opacity="0.34"/>
      <stop offset="1" stop-color="#FF6A13" stop-opacity="0"/>
    </radialGradient>
    <linearGradient id="ember" gradientUnits="userSpaceOnUse" x1="30" y1="6" x2="30" y2="54">
      <stop offset="0" stop-color="#FFD76B"/><stop offset=".5" stop-color="#FF8A3D"/><stop offset="1" stop-color="#FF6A13"/>
    </linearGradient>
    <linearGradient id="word" gradientUnits="userSpaceOnUse" x1="0" y1="28.0" x2="0" y2="63.0">
      <stop offset="0" stop-color="#ECE7DC"/><stop offset="1" stop-color="#7E8794"/>
    </linearGradient>
  </defs>

  <rect width="1280" height="640" fill="url(#bg)"/>
  <ellipse cx="318" cy="278" rx="470" ry="360" fill="url(#glow)"/>

  <!-- FoundrySwift horizontal lockup, centered -->
  <g transform="translate(200,158) scale(2.056)">
    <g transform="translate(6,8) scale(0.86)"><polygon points="60,12 101,36 101,84 60,108 19,84 19,36" fill="none" stroke="#3A4250" stroke-width="4" stroke-linejoin="round"/><polygon points="60,12 101,36 101,84 60,108 19,84 19,36" fill="none" stroke="#6B7686" stroke-width="1.3" stroke-linejoin="round" opacity="0.7"/><g transform="translate(60,60) scale(1.02) translate(-29.695,-29.695)"><path fill="url(#ember)" stroke="#ECE7DC" stroke-width="0.8" d="M47.0606,36.6607c-0.0014-0.0018-0.0027-0.0031-0.0042-0.0048c0.0657-0.2236,0.1335-0.4458,0.191-0.675c2.465-9.8209-3.5511-21.4319-13.7316-27.5454c4.4613,6.0479,6.4339,13.3733,4.6813,19.7795c-0.1563,0.5714-0.3442,1.1198-0.5519,1.6528c-0.2254-0.1481-0.5094-0.3162-0.8908-0.5265c0,0-10.1269-6.2527-21.1028-17.3122c-0.288-0.2903,5.8528,8.777,12.8219,16.1399c-3.2834-1.8427-12.4338-8.5004-18.2266-13.8023c0.7117,1.1869,1.5582,2.3298,2.4887,3.4301c4.8375,6.1349,11.1462,13.7044,18.7043,19.5169c-5.3104,3.2498-12.8141,3.5025-20.2852,0.0034c-1.8479-0.866-3.5851-1.9109-5.1932-3.0981c3.1625,5.0585,8.0332,9.4229,13.9613,11.9708c7.0695,3.0381,14.0996,2.8321,19.3356,0.0498l-0.0041,0.006c0.0239-0.0151,0.0543-0.0316,0.0791-0.0469c0.215-0.1156,0.4284-0.2333,0.6371-0.3576c2.5157-1.3058,7.4847-2.6306,10.1518,2.5588C50.7755,49.6699,52.1635,42.9395,47.0606,36.6607z"/></g></g>
    <line x1="106.9" y1="30" x2="106.9" y2="90" stroke="#3A4250" stroke-width="2" opacity="0.9"/>
    <g transform="translate(124.86,63.00) scale(0.05000,-0.05000)" fill="url(#word)"><path d="M269.0 700V0H119.0V700ZM496.0 366V324H266.0V366ZM545.0 700V657H266.0V700ZM496.0 326V230H486.0V238Q486.0 275 462.0 299.0Q438.0 323 401.0 324V326ZM496.0 460V364H401.0V366Q438.0 367 462.0 391.5Q486.0 416 486.0 453V460ZM545.0 660V549H535.0V559Q535.0 604 508.5 630.5Q482.0 657 437.0 657V660ZM545.0 718V689L423.0 700Q445.0 700 469.5 703.0Q494.0 706 515.0 710.0Q536.0 714 545.0 718ZM122.0 73V0H42.0V10Q42.0 10 48.5 10.0Q55.0 10 55.0 10Q81.0 10 99.5 28.5Q118.0 47 119.0 73ZM122.0 627H119.0Q118.0 653 99.5 671.5Q81.0 690 55.0 690Q55.0 690 48.5 690.0Q42.0 690 42.0 690V700H122.0ZM266.0 73H269.0Q270.0 47 288.5 28.5Q307.0 10 333.0 10Q333.0 10 339.0 10.0Q345.0 10 346.0 10V0H266.0Z M1088.0 714Q1208.0 714 1296.5 669.5Q1385.0 625 1433.5 544.0Q1482.0 463 1482.0 350Q1482.0 238 1433.5 156.5Q1385.0 75 1296.5 30.5Q1208.0 -14 1088.0 -14Q968.0 -14 879.5 30.5Q791.0 75 743.0 156.0Q695.0 237 695.0 350Q695.0 462 743.0 543.5Q791.0 625 879.5 669.5Q968.0 714 1088.0 714ZM1088.0 28Q1159.0 28 1210.0 67.5Q1261.0 107 1289.0 179.0Q1317.0 251 1317.0 350Q1317.0 449 1289.0 521.0Q1261.0 593 1210.0 632.5Q1159.0 672 1088.0 672Q1018.0 672 966.5 632.5Q915.0 593 887.0 521.0Q859.0 449 859.0 350Q859.0 251 887.0 179.0Q915.0 107 966.5 67.5Q1018.0 28 1088.0 28Z M1832.0 700V260Q1832.0 189 1855.5 137.0Q1879.0 85 1922.5 57.0Q1966.0 29 2026.0 29Q2087.0 29 2131.5 55.5Q2176.0 82 2200.0 131.0Q2224.0 180 2224.0 247V700H2296.0V253Q2296.0 171 2261.5 111.0Q2227.0 51 2162.5 18.5Q2098.0 -14 2007.0 -14Q1901.0 -14 1828.0 18.5Q1755.0 51 1718.5 110.5Q1682.0 170 1682.0 252V700ZM1685.0 700V640H1682.0Q1682.0 662 1666.5 676.0Q1651.0 690 1629.0 690Q1629.0 690 1621.0 690.0Q1613.0 690 1613.0 690V700ZM1901.0 700V690Q1901.0 690 1893.0 690.0Q1885.0 690 1885.0 690Q1863.0 690 1847.5 676.0Q1832.0 662 1832.0 640H1830.0V700ZM2227.0 700V640H2224.0Q2224.0 662 2208.5 676.0Q2193.0 690 2171.0 690Q2171.0 690 2163.0 690.0Q2155.0 690 2155.0 690V700ZM2365.0 700V690Q2365.0 690 2357.0 690.0Q2349.0 690 2349.0 690Q2327.0 690 2311.5 676.0Q2296.0 662 2296.0 640H2294.0V700Z M2554.0 715 3192.0 107 3204.0 -14 2566.0 593ZM2559.0 71V0H2476.0V10Q2476.0 10 2485.0 10.0Q2494.0 10 2495.0 10Q2520.0 10 2538.0 28.0Q2556.0 46 2556.0 71ZM2699.0 71Q2699.0 46 2717.0 28.0Q2735.0 10 2760.0 10Q2761.0 10 2770.0 10.0Q2779.0 10 2779.0 10V0H2696.0V71ZM2554.0 715 2698.0 562 2699.0 0H2556.0V590Q2556.0 646 2550.0 680.5Q2544.0 715 2544.0 715ZM3201.0 700V114Q3201.0 77 3204.0 47.5Q3207.0 18 3210.0 2.0Q3213.0 -14 3213.0 -14H3204.0L3059.0 148V700ZM3281.0 700V690Q3281.0 690 3272.0 690.0Q3263.0 690 3263.0 690Q3238.0 690 3220.0 672.5Q3202.0 655 3201.0 629H3198.0V700ZM2978.0 700H3061.0V629H3059.0Q3058.0 655 3040.5 672.5Q3023.0 690 2997.0 690Q2997.0 690 2988.0 690.0Q2979.0 690 2978.0 690Z M3766.0 700Q3884.0 700 3970.0 657.5Q4056.0 615 4102.5 536.5Q4149.0 458 4149.0 350Q4149.0 242 4102.5 163.5Q4056.0 85 3970.0 42.5Q3884.0 0 3766.0 0H3528.0L3527.0 42Q3556.0 42 3587.5 42.0Q3619.0 42 3649.0 42.0Q3679.0 42 3702.5 42.0Q3726.0 42 3740.0 42.0Q3754.0 42 3754.0 42Q3826.0 42 3878.0 79.5Q3930.0 117 3958.0 186.0Q3986.0 255 3986.0 350Q3986.0 445 3958.0 514.0Q3930.0 583 3878.0 620.5Q3826.0 658 3754.0 658Q3754.0 658 3739.5 658.0Q3725.0 658 3700.0 658.0Q3675.0 658 3644.0 658.0Q3613.0 658 3580.0 658.0Q3547.0 658 3517.0 658V700ZM3630.0 700V0H3480.0V700ZM3483.0 73V0H3403.0V10Q3403.0 10 3409.5 10.0Q3416.0 10 3416.0 10Q3442.0 10 3460.5 28.5Q3479.0 47 3480.0 73ZM3483.0 627H3480.0Q3480.0 653 3461.0 671.5Q3442.0 690 3416.0 690Q3416.0 690 3410.0 690.0Q3404.0 690 3404.0 690L3403.0 700H3483.0Z M4498.0 700H4627.0Q4672.0 700 4715.0 690.0Q4758.0 680 4791.5 658.0Q4825.0 636 4845.0 600.0Q4865.0 564 4865.0 511Q4865.0 469 4847.5 427.5Q4830.0 386 4794.0 356.5Q4758.0 327 4701.0 321Q4733.0 311 4759.5 285.0Q4786.0 259 4803.0 233Q4804.0 231 4814.5 215.0Q4825.0 199 4840.5 175.5Q4856.0 152 4873.0 128.0Q4890.0 104 4904.0 86Q4926.0 59 4944.0 42.5Q4962.0 26 4982.0 18.5Q5002.0 11 5028.0 10V0H4930.0Q4876.0 0 4832.0 9.5Q4788.0 19 4754.0 42.0Q4720.0 65 4695.0 104Q4687.0 116 4677.5 134.5Q4668.0 153 4658.0 174.0Q4648.0 195 4638.5 214.5Q4629.0 234 4622.0 250.0Q4615.0 266 4612.0 275Q4599.0 307 4581.5 323.0Q4564.0 339 4544.0 342V352Q4547.0 352 4556.0 352.0Q4565.0 352 4575.0 352Q4602.0 352 4627.5 363.0Q4653.0 374 4673.0 399.0Q4693.0 424 4701.0 468Q4703.0 477 4704.5 489.0Q4706.0 501 4705.0 516Q4702.0 588 4669.0 621.5Q4636.0 655 4587.0 656Q4573.0 657 4556.5 656.5Q4540.0 656 4526.5 656.0Q4513.0 656 4508.0 656Q4508.0 657 4505.5 667.5Q4503.0 678 4500.5 689.0Q4498.0 700 4498.0 700ZM4511.0 700V0H4361.0V700ZM4364.0 73V0H4284.0V10Q4285.0 10 4290.5 10.0Q4296.0 10 4297.0 10Q4323.0 10 4341.5 28.5Q4360.0 47 4361.0 73ZM4364.0 627H4361.0Q4360.0 653 4341.5 671.5Q4323.0 690 4297.0 690Q4296.0 690 4290.5 690.0Q4285.0 690 4284.0 690V700H4364.0ZM4508.0 73H4511.0Q4511.0 47 4530.0 28.5Q4549.0 10 4575.0 10Q4577.0 10 4582.0 10.0Q4587.0 10 4587.0 10V0H4508.0Z M5249.0 699 5454.0 327 5312.0 313 5078.0 699ZM5459.0 322V0H5309.0V322ZM5620.0 699H5698.0L5449.0 302L5398.0 312ZM5579.0 628Q5588.0 642 5584.0 656.5Q5580.0 671 5569.0 680.5Q5558.0 690 5544.0 690Q5544.0 690 5538.0 690.0Q5532.0 690 5532.0 690V700H5771.0V690H5757.0Q5726.0 690 5698.5 672.0Q5671.0 654 5656.0 631ZM5288.0 628 5119.0 631Q5105.0 654 5078.0 672.0Q5051.0 690 5019.0 690H5005.0V700H5336.0V690Q5336.0 690 5329.5 690.0Q5323.0 690 5323.0 690Q5301.0 690 5289.5 669.5Q5278.0 649 5288.0 628ZM5312.0 73V0H5232.0V10Q5232.0 10 5238.0 10.0Q5244.0 10 5245.0 10Q5271.0 10 5289.5 28.5Q5308.0 47 5309.0 73ZM5456.0 73H5459.0Q5459.0 47 5478.0 28.5Q5497.0 10 5523.0 10Q5523.0 10 5529.0 10.0Q5535.0 10 5535.0 10V0H5456.0Z"/></g>
    <g transform="translate(124.86,87.00) scale(0.01960,-0.01960)" fill="#FF8A3D"><path d="M268.0 714Q287.0 714 313.0 712.0Q339.0 710 365.5 706.5Q392.0 703 413.0 699.5Q434.0 696 442.0 692L434.0 565H424.0Q424.0 616 387.5 646.0Q351.0 676 293.0 676Q235.0 676 200.5 646.0Q166.0 616 165.0 573Q163.0 548 179.5 524.5Q196.0 501 224.0 481L417.0 338Q458.0 311 477.0 272.5Q496.0 234 494.0 186Q491.0 94 427.5 40.0Q364.0 -14 255.0 -14Q218.0 -14 179.5 -7.5Q141.0 -1 109.0 12.5Q77.0 26 58.0 45Q52.0 65 53.0 93.5Q54.0 122 61.0 152.5Q68.0 183 78.0 204H87.0Q83.0 153 104.0 111.5Q125.0 70 165.5 46.5Q206.0 23 261.0 24Q323.0 26 360.5 59.0Q398.0 92 398.0 144Q398.0 174 382.0 198.5Q366.0 223 332.0 243L151.0 380Q105.0 410 85.5 452.5Q66.0 495 69.0 541Q72.0 589 96.0 628.5Q120.0 668 163.5 691.0Q207.0 714 268.0 714ZM443.0 704 442.0 683H338.0V704Z M910.0 694H1045.0L1214.0 194L1168.0 -16ZM1392.0 716 1407.0 623 1201.0 95Q1201.0 95 1195.0 78.0Q1189.0 61 1183.5 35.5Q1178.0 10 1177.0 -16H1168.0L1144.0 93L1383.0 716ZM1392.0 715 1609.0 195 1570.0 -16 1335.0 546ZM1786.0 694 1598.0 95Q1598.0 95 1593.0 77.0Q1588.0 59 1583.5 33.5Q1579.0 8 1579.0 -16H1570.0L1547.0 83L1721.0 694ZM1702.0 628Q1710.0 658 1697.0 674.0Q1684.0 690 1664.0 690H1655.0V700H1861.0V690Q1861.0 690 1857.0 690.0Q1853.0 690 1853.0 690Q1830.0 690 1803.0 675.5Q1776.0 661 1765.0 628ZM1069.0 628H934.0Q921.0 661 895.0 675.5Q869.0 690 846.0 690Q846.0 690 842.0 690.0Q838.0 690 838.0 690V700H1115.0V690H1106.0Q1087.0 690 1072.5 674.0Q1058.0 658 1069.0 628Z M2406.0 700V0H2284.0V700ZM2287.0 73V0H2207.0V10Q2207.0 10 2213.5 10.0Q2220.0 10 2220.0 10Q2246.0 10 2264.5 28.5Q2283.0 47 2284.0 73ZM2287.0 627H2284.0Q2283.0 653 2264.5 671.5Q2246.0 690 2220.0 690Q2220.0 690 2213.5 690.0Q2207.0 690 2207.0 690V700H2287.0ZM2403.0 73H2406.0Q2407.0 47 2425.5 28.5Q2444.0 10 2470.0 10Q2470.0 10 2476.0 10.0Q2482.0 10 2483.0 10V0H2403.0ZM2403.0 627V700H2483.0V690Q2482.0 690 2476.0 690.0Q2470.0 690 2470.0 690Q2444.0 690 2425.5 671.5Q2407.0 653 2406.0 627Z M3096.0 700V0H2974.0V700ZM3323.0 364V326H3093.0V364ZM3370.0 700V661H3093.0V700ZM3323.0 328V242H3313.0V253Q3313.0 284 3292.0 305.0Q3271.0 326 3240.0 326V328ZM3323.0 448V362H3240.0V364Q3271.0 365 3292.0 386.0Q3313.0 407 3313.0 438V448ZM3370.0 664V567H3360.0V580Q3360.0 616 3337.5 638.5Q3315.0 661 3278.0 661V664ZM3370.0 718V689L3248.0 700Q3270.0 700 3294.5 703.0Q3319.0 706 3340.0 710.0Q3361.0 714 3370.0 718ZM2977.0 73V0H2897.0V10Q2897.0 10 2903.5 10.0Q2910.0 10 2910.0 10Q2936.0 10 2954.5 28.5Q2973.0 47 2974.0 73ZM2977.0 627H2974.0Q2973.0 653 2954.5 671.5Q2936.0 690 2910.0 690Q2910.0 690 2903.5 690.0Q2897.0 690 2897.0 690V700H2977.0ZM3093.0 73H3096.0Q3097.0 47 3115.5 28.5Q3134.0 10 3160.0 10Q3160.0 10 3166.0 10.0Q3172.0 10 3173.0 10V0H3093.0Z M4133.0 697V0H4011.0V697ZM4381.0 701V663H3762.0V701ZM4381.0 666V561L4371.0 562V575Q4371.0 614 4347.0 638.0Q4323.0 662 4284.0 663V666ZM4381.0 719V690L4259.0 701Q4281.0 701 4305.5 704.0Q4330.0 707 4351.0 711.0Q4372.0 715 4381.0 719ZM4014.0 73V0H3934.0V10Q3934.0 10 3940.5 10.0Q3947.0 10 3947.0 10Q3973.0 10 3991.5 28.5Q4010.0 47 4011.0 73ZM4130.0 73H4133.0Q4134.0 47 4152.5 28.5Q4171.0 10 4197.0 10Q4197.0 10 4203.5 10.0Q4210.0 10 4210.0 10V0H4130.0ZM3859.0 666V663Q3820.0 662 3796.0 638.0Q3772.0 614 3772.0 575V562L3762.0 561V666ZM3762.0 719Q3772.0 715 3792.5 711.0Q3813.0 707 3838.0 704.0Q3863.0 701 3884.0 701L3762.0 690Z"/></g>
  </g>


  <!-- Tagline (Cinzel, outlined to paths) -->
  <g fill="#ECE7DC"><path transform="translate(370.56,468.00) scale(0.03000,-0.03000)" d="M260 714Q277 714 299.0 712.0Q321 710 343.5 706.5Q366 703 383.5 699.5Q401 696 409 692L405 573H396Q396 622 361.0 651.0Q326 680 273 680Q217 680 182.5 647.5Q148 615 148 571Q147 549 159.5 524.5Q172 500 198 479L393 316Q428 289 442.5 253.5Q457 218 456 180Q454 92 397.0 39.0Q340 -14 243 -14Q212 -14 176.5 -8.0Q141 -2 110.0 10.5Q79 23 60 43Q55 61 55.5 87.5Q56 114 61.5 142.0Q67 170 76 192H85Q80 141 99.5 101.0Q119 61 156.5 39.5Q194 18 243 20Q302 22 340.5 56.5Q379 91 379 147Q379 176 366.0 200.0Q353 224 326 243L140 401Q102 429 86.0 467.0Q70 505 72 543Q74 588 96.0 627.5Q118 667 159.5 690.5Q201 714 260 714ZM409 704V683H319V704Z"/><path transform="translate(387.83,468.00) scale(0.03000,-0.03000)" d="M54 694H163L340 145L309 -14ZM520 716 531 629 340 97Q340 97 334.5 79.5Q329 62 324.0 37.0Q319 12 318 -14H309L287 85L511 716ZM520 715 733 160 702 -14 474 576ZM919 694 732 97Q732 97 727.0 79.0Q722 61 717.0 35.5Q712 10 712 -14H702L685 85L859 694ZM840 628Q848 658 835.0 674.0Q822 690 802 690H793V700H994V690Q994 690 990.0 690.0Q986 690 986 690Q963 690 936.0 675.5Q909 661 898 628ZM185 628H78Q66 661 39.5 675.5Q13 690 -10 690Q-10 690 -14.0 690.0Q-18 690 -18 690V700H232V690H223Q204 690 189.5 674.0Q175 658 185 628Z"/><path transform="translate(419.17,468.00) scale(0.03000,-0.03000)" d="M224 700V0H131V700ZM134 73V0H54V10Q54 10 60.5 10.0Q67 10 67 10Q93 10 111.5 28.5Q130 47 131 73ZM134 627H131Q130 653 111.5 671.5Q93 690 67 690Q67 690 60.5 690.0Q54 690 54 690V700H134ZM221 73H224Q225 47 243.5 28.5Q262 10 288 10Q288 10 294.0 10.0Q300 10 301 10V0H221ZM221 627V700H301V690Q300 690 294.0 690.0Q288 690 288 690Q262 690 243.5 671.5Q225 653 224 627Z"/><path transform="translate(431.79,468.00) scale(0.03000,-0.03000)" d="M224 700V0H131V700ZM451 362V328H221V362ZM496 700V665H221V700ZM451 330V254H441V267Q441 292 424.0 310.0Q407 328 381 328V330ZM451 436V360H381V362Q407 363 424.0 381.0Q441 399 441 424V436ZM496 668V586H486V600Q486 628 467.5 646.5Q449 665 421 665V668ZM496 718V689L374 700Q396 700 420.5 703.0Q445 706 466.0 710.0Q487 714 496 718ZM134 73V0H54V10Q54 10 60.5 10.0Q67 10 67 10Q93 10 111.5 28.5Q130 47 131 73ZM134 627H131Q131 653 112.0 671.5Q93 690 67 690Q67 690 61.0 690.0Q55 690 55 690L54 700H134ZM221 73H224Q225 47 243.5 28.5Q262 10 288 10Q288 10 294.0 10.0Q300 10 301 10V0H221Z"/><path transform="translate(450.56,468.00) scale(0.03000,-0.03000)" d="M364 697V0H271V697ZM617 701V667H18V701ZM617 670V577L607 578V593Q607 625 586.5 645.5Q566 666 534 667V670ZM617 719V690L495 701Q517 701 541.5 704.0Q566 707 587.0 711.0Q608 715 617 719ZM274 73V0H194V10Q194 10 200.5 10.0Q207 10 207 10Q233 10 251.5 28.5Q270 47 271 73ZM361 73H364Q365 47 383.5 28.5Q402 10 428 10Q428 10 434.5 10.0Q441 10 441 10V0H361ZM101 670V667Q69 666 48.5 645.5Q28 625 28 593V578L18 577V670ZM18 719Q28 715 48.5 711.0Q69 707 94.0 704.0Q119 701 140 701L18 690Z"/><path transform="translate(481.08,468.00) scale(0.03000,-0.03000)" d="M155 700H283Q354 700 405.5 680.0Q457 660 484.5 622.5Q512 585 512 532Q512 488 495.5 456.5Q479 425 453.0 406.5Q427 388 398 381Q450 374 489.5 348.0Q529 322 550.0 282.0Q571 242 571 190Q571 132 541.5 89.0Q512 46 456.0 23.0Q400 0 322 0H215Q215 0 215.5 10.0Q216 20 216.0 29.5Q216 39 216 39H305Q355 39 390.5 57.0Q426 75 445.0 111.0Q464 147 464 199Q464 251 445.0 284.5Q426 318 396.0 336.5Q366 355 329.5 362.5Q293 370 258 370V379Q281 379 307.0 385.0Q333 391 356.5 406.0Q380 421 394.5 449.5Q409 478 409 523Q409 570 393.0 601.5Q377 633 345.5 648.5Q314 664 269 664H165Q165 665 162.5 673.5Q160 682 157.5 691.0Q155 700 155 700ZM224 700V0H131V700ZM134 73V0H54L55 10Q57 10 61.5 10.0Q66 10 67 10Q93 10 112.0 28.5Q131 47 131 73ZM134 627H131Q131 653 112.0 671.5Q93 690 67 690Q66 690 61.5 690.0Q57 690 55 690L54 700H134Z"/><path transform="translate(501.53,468.00) scale(0.03000,-0.03000)" d="M224 700V0H131V700ZM134 73V0H54V10Q54 10 60.5 10.0Q67 10 67 10Q93 10 111.5 28.5Q130 47 131 73ZM134 627H131Q130 653 111.5 671.5Q93 690 67 690Q67 690 60.5 690.0Q54 690 54 690V700H134ZM221 73H224Q225 47 243.5 28.5Q262 10 288 10Q288 10 294.0 10.0Q300 10 301 10V0H221ZM221 627V700H301V690Q300 690 294.0 690.0Q288 690 288 690Q262 690 243.5 671.5Q225 653 224 627Z"/><path transform="translate(514.15,468.00) scale(0.03000,-0.03000)" d="M120 715 720 99 730 -14 130 601ZM123 71V0H40V10Q40 10 49.0 10.0Q58 10 59 10Q84 10 102.0 28.0Q120 46 120 71ZM198 71Q198 46 216.0 28.0Q234 10 259 10Q260 10 269.0 10.0Q278 10 278 10V0H195V71ZM120 715 197 627 198 0H120V590Q120 643 115.0 679.0Q110 715 110 715ZM729 700V114Q729 80 731.5 50.5Q734 21 736.5 3.5Q739 -14 739 -14H730L652 75V700ZM809 700V690Q809 690 800.0 690.0Q791 690 791 690Q766 690 748.0 672.5Q730 655 729 629H726V700ZM571 700H654V629H652Q651 655 633.5 672.5Q616 690 590 690Q590 690 581.0 690.0Q572 690 571 690Z"/><path transform="translate(541.62,468.00) scale(0.03000,-0.03000)" d="M401 700Q512 700 594.0 657.0Q676 614 722.0 535.0Q768 456 768 350Q768 244 722.0 165.5Q676 87 594.0 43.5Q512 0 401 0H179L178 34Q188 34 212.5 34.0Q237 34 269.0 34.0Q301 34 330.0 34.0Q359 34 378.0 34.0Q397 34 397 34Q478 34 538.0 73.0Q598 112 631.0 183.0Q664 254 664 350Q664 446 631.0 517.0Q598 588 538.0 627.0Q478 666 397 666Q397 666 377.0 666.0Q357 666 326.5 666.0Q296 666 263.5 666.0Q231 666 204.5 666.0Q178 666 168 666V700ZM224 700V0H131V700ZM134 73V0H54V10Q54 10 60.5 10.0Q67 10 67 10Q93 10 111.5 28.5Q130 47 131 73ZM134 627H131Q131 653 112.0 671.5Q93 690 67 690Q67 690 61.0 690.0Q55 690 55 690L54 700H134Z"/><path transform="translate(568.04,468.00) scale(0.03000,-0.03000)" d="M224 700V0H131V700ZM134 73V0H54V10Q54 10 60.5 10.0Q67 10 67 10Q93 10 111.5 28.5Q130 47 131 73ZM134 627H131Q130 653 111.5 671.5Q93 690 67 690Q67 690 60.5 690.0Q54 690 54 690V700H134ZM221 73H224Q225 47 243.5 28.5Q262 10 288 10Q288 10 294.0 10.0Q300 10 301 10V0H221ZM221 627V700H301V690Q300 690 294.0 690.0Q288 690 288 690Q262 690 243.5 671.5Q225 653 224 627Z"/><path transform="translate(580.66,468.00) scale(0.03000,-0.03000)" d="M120 715 720 99 730 -14 130 601ZM123 71V0H40V10Q40 10 49.0 10.0Q58 10 59 10Q84 10 102.0 28.0Q120 46 120 71ZM198 71Q198 46 216.0 28.0Q234 10 259 10Q260 10 269.0 10.0Q278 10 278 10V0H195V71ZM120 715 197 627 198 0H120V590Q120 643 115.0 679.0Q110 715 110 715ZM729 700V114Q729 80 731.5 50.5Q734 21 736.5 3.5Q739 -14 739 -14H730L652 75V700ZM809 700V690Q809 690 800.0 690.0Q791 690 791 690Q766 690 748.0 672.5Q730 655 729 629H726V700ZM571 700H654V629H652Q651 655 633.5 672.5Q616 690 590 690Q590 690 581.0 690.0Q572 690 571 690Z"/><path transform="translate(608.13,468.00) scale(0.03000,-0.03000)" d="M724 280V115Q701 85 659.0 55.0Q617 25 557.5 5.5Q498 -14 420 -14Q312 -13 229.5 32.0Q147 77 101.0 158.5Q55 240 55 350Q55 460 101.0 542.0Q147 624 229.5 669.0Q312 714 422 714Q477 714 524.0 705.5Q571 697 609.0 682.5Q647 668 676 650L690 499H681Q665 561 630.0 600.5Q595 640 544.5 660.0Q494 680 432 680Q349 680 287.5 639.0Q226 598 192.5 523.5Q159 449 159 348Q159 250 192.0 176.0Q225 102 284.5 61.5Q344 21 425 20Q466 20 504.5 31.0Q543 42 576.0 62.0Q609 82 631 111L632 280Q632 325 581 325H565V335H789V325H774Q722 325 724 280Z"/><path transform="translate(634.46,468.00) scale(0.03000,-0.03000)" d="M260 714Q277 714 299.0 712.0Q321 710 343.5 706.5Q366 703 383.5 699.5Q401 696 409 692L405 573H396Q396 622 361.0 651.0Q326 680 273 680Q217 680 182.5 647.5Q148 615 148 571Q147 549 159.5 524.5Q172 500 198 479L393 316Q428 289 442.5 253.5Q457 218 456 180Q454 92 397.0 39.0Q340 -14 243 -14Q212 -14 176.5 -8.0Q141 -2 110.0 10.5Q79 23 60 43Q55 61 55.5 87.5Q56 114 61.5 142.0Q67 170 76 192H85Q80 141 99.5 101.0Q119 61 156.5 39.5Q194 18 243 20Q302 22 340.5 56.5Q379 91 379 147Q379 176 366.0 200.0Q353 224 326 243L140 401Q102 429 86.0 467.0Q70 505 72 543Q74 588 96.0 627.5Q118 667 159.5 690.5Q201 714 260 714ZM409 704V683H319V704Z"/><path transform="translate(661.23,468.00) scale(0.03000,-0.03000)" d="M224 700V0H131V700ZM451 362V328H221V362ZM496 700V665H221V700ZM451 330V254H441V267Q441 292 424.0 310.0Q407 328 381 328V330ZM451 436V360H381V362Q407 363 424.0 381.0Q441 399 441 424V436ZM496 668V586H486V600Q486 628 467.5 646.5Q449 665 421 665V668ZM496 718V689L374 700Q396 700 420.5 703.0Q445 706 466.0 710.0Q487 714 496 718ZM134 73V0H54V10Q54 10 60.5 10.0Q67 10 67 10Q93 10 111.5 28.5Q130 47 131 73ZM134 627H131Q131 653 112.0 671.5Q93 690 67 690Q67 690 61.0 690.0Q55 690 55 690L54 700H134ZM221 73H224Q225 47 243.5 28.5Q262 10 288 10Q288 10 294.0 10.0Q300 10 301 10V0H221Z"/><path transform="translate(680.00,468.00) scale(0.03000,-0.03000)" d="M433 714Q545 714 628.5 669.0Q712 624 758.5 542.0Q805 460 805 350Q805 240 758.5 158.0Q712 76 628.5 31.0Q545 -14 433 -14Q323 -14 239.5 31.0Q156 76 109.5 158.0Q63 240 63 350Q63 460 109.5 542.0Q156 624 239.5 669.0Q323 714 433 714ZM433 20Q514 20 573.0 61.0Q632 102 665.0 176.0Q698 250 698 350Q698 450 665.0 524.0Q632 598 573.0 639.0Q514 680 433 680Q354 680 294.5 639.0Q235 598 202.0 524.0Q169 450 169 350Q169 250 202.0 176.0Q235 102 294.5 61.0Q354 20 433 20Z"/><path transform="translate(707.56,468.00) scale(0.03000,-0.03000)" d="M212 700H349Q394 700 433.0 688.0Q472 676 499.5 652.5Q527 629 543.0 594.0Q559 559 559 512Q559 466 538.0 422.5Q517 379 479.5 351.0Q442 323 391 321Q413 313 435.0 290.0Q457 267 473 245Q473 244 485.5 226.0Q498 208 517.0 181.5Q536 155 555.5 129.0Q575 103 590 86Q610 62 629.5 45.5Q649 29 671.5 19.5Q694 10 722 10V0H652Q604 0 567.0 12.5Q530 25 503.0 46.5Q476 68 457 93Q453 100 440.5 119.0Q428 138 412.5 162.5Q397 187 382.0 211.0Q367 235 356.0 252.5Q345 270 342 275Q325 302 304.0 321.5Q283 341 258 342V352Q259 352 272.5 351.5Q286 351 304 352Q330 353 359.5 361.0Q389 369 413.5 392.0Q438 415 450 460Q453 470 454.5 485.0Q456 500 455 516Q454 585 420.5 623.5Q387 662 333 664Q310 666 285.0 665.5Q260 665 242.0 665.0Q224 665 222 665Q222 666 219.5 674.5Q217 683 214.5 691.5Q212 700 212 700ZM225 700V0H132V700ZM135 73V0H55V10Q55 10 61.5 10.0Q68 10 68 10Q94 10 112.5 28.5Q131 47 132 73ZM135 627H132Q131 653 112.5 671.5Q94 690 68 690Q68 690 61.5 690.0Q55 690 55 690V700H135ZM222 73H225Q225 47 244.0 28.5Q263 10 289 10Q290 10 295.5 10.0Q301 10 301 10V0H222Z"/><path transform="translate(740.06,468.00) scale(0.03000,-0.03000)" d="M224 700V0H131V700ZM451 362V328H221V362ZM496 700V665H221V700ZM451 330V254H441V267Q441 292 424.0 310.0Q407 328 381 328V330ZM451 436V360H381V362Q407 363 424.0 381.0Q441 399 441 424V436ZM496 668V586H486V600Q486 628 467.5 646.5Q449 665 421 665V668ZM496 718V689L374 700Q396 700 420.5 703.0Q445 706 466.0 710.0Q487 714 496 718ZM134 73V0H54V10Q54 10 60.5 10.0Q67 10 67 10Q93 10 111.5 28.5Q130 47 131 73ZM134 627H131Q131 653 112.0 671.5Q93 690 67 690Q67 690 61.0 690.0Q55 690 55 690L54 700H134ZM221 73H224Q225 47 243.5 28.5Q262 10 288 10Q288 10 294.0 10.0Q300 10 301 10V0H221Z"/><path transform="translate(758.83,468.00) scale(0.03000,-0.03000)" d="M433 714Q545 714 628.5 669.0Q712 624 758.5 542.0Q805 460 805 350Q805 240 758.5 158.0Q712 76 628.5 31.0Q545 -14 433 -14Q323 -14 239.5 31.0Q156 76 109.5 158.0Q63 240 63 350Q63 460 109.5 542.0Q156 624 239.5 669.0Q323 714 433 714ZM433 20Q514 20 573.0 61.0Q632 102 665.0 176.0Q698 250 698 350Q698 450 665.0 524.0Q632 598 573.0 639.0Q514 680 433 680Q354 680 294.5 639.0Q235 598 202.0 524.0Q169 450 169 350Q169 250 202.0 176.0Q235 102 294.5 61.0Q354 20 433 20Z"/><path transform="translate(786.39,468.00) scale(0.03000,-0.03000)" d="M208 700V260Q208 188 233.5 134.0Q259 80 305.5 50.5Q352 21 414 21Q479 21 527.5 49.0Q576 77 602.5 128.0Q629 179 629 247V700H684V249Q684 170 650.5 111.0Q617 52 554.5 19.0Q492 -14 408 -14Q317 -14 251.0 18.5Q185 51 150.0 110.0Q115 169 115 248V700ZM118 700V640H115Q115 662 99.5 676.0Q84 690 62 690Q62 690 54.0 690.0Q46 690 46 690V700ZM277 700V690Q277 690 269.0 690.0Q261 690 261 690Q239 690 223.5 676.0Q208 662 208 640H206V700ZM632 700V640H629Q629 662 613.5 676.0Q598 690 576 690Q576 690 568.0 690.0Q560 690 560 690V700ZM753 700V690Q753 690 745.0 690.0Q737 690 737 690Q715 690 699.5 676.0Q684 662 684 640H682V700Z"/><path transform="translate(812.30,468.00) scale(0.03000,-0.03000)" d="M120 715 720 99 730 -14 130 601ZM123 71V0H40V10Q40 10 49.0 10.0Q58 10 59 10Q84 10 102.0 28.0Q120 46 120 71ZM198 71Q198 46 216.0 28.0Q234 10 259 10Q260 10 269.0 10.0Q278 10 278 10V0H195V71ZM120 715 197 627 198 0H120V590Q120 643 115.0 679.0Q110 715 110 715ZM729 700V114Q729 80 731.5 50.5Q734 21 736.5 3.5Q739 -14 739 -14H730L652 75V700ZM809 700V690Q809 690 800.0 690.0Q791 690 791 690Q766 690 748.0 672.5Q730 655 729 629H726V700ZM571 700H654V629H652Q651 655 633.5 672.5Q616 690 590 690Q590 690 581.0 690.0Q572 690 571 690Z"/><path transform="translate(839.77,468.00) scale(0.03000,-0.03000)" d="M401 700Q512 700 594.0 657.0Q676 614 722.0 535.0Q768 456 768 350Q768 244 722.0 165.5Q676 87 594.0 43.5Q512 0 401 0H179L178 34Q188 34 212.5 34.0Q237 34 269.0 34.0Q301 34 330.0 34.0Q359 34 378.0 34.0Q397 34 397 34Q478 34 538.0 73.0Q598 112 631.0 183.0Q664 254 664 350Q664 446 631.0 517.0Q598 588 538.0 627.0Q478 666 397 666Q397 666 377.0 666.0Q357 666 326.5 666.0Q296 666 263.5 666.0Q231 666 204.5 666.0Q178 666 168 666V700ZM224 700V0H131V700ZM134 73V0H54V10Q54 10 60.5 10.0Q67 10 67 10Q93 10 111.5 28.5Q130 47 131 73ZM134 627H131Q131 653 112.0 671.5Q93 690 67 690Q67 690 61.0 690.0Q55 690 55 690L54 700H134Z"/><path transform="translate(866.19,468.00) scale(0.03000,-0.03000)" d="M212 700H349Q394 700 433.0 688.0Q472 676 499.5 652.5Q527 629 543.0 594.0Q559 559 559 512Q559 466 538.0 422.5Q517 379 479.5 351.0Q442 323 391 321Q413 313 435.0 290.0Q457 267 473 245Q473 244 485.5 226.0Q498 208 517.0 181.5Q536 155 555.5 129.0Q575 103 590 86Q610 62 629.5 45.5Q649 29 671.5 19.5Q694 10 722 10V0H652Q604 0 567.0 12.5Q530 25 503.0 46.5Q476 68 457 93Q453 100 440.5 119.0Q428 138 412.5 162.5Q397 187 382.0 211.0Q367 235 356.0 252.5Q345 270 342 275Q325 302 304.0 321.5Q283 341 258 342V352Q259 352 272.5 351.5Q286 351 304 352Q330 353 359.5 361.0Q389 369 413.5 392.0Q438 415 450 460Q453 470 454.5 485.0Q456 500 455 516Q454 585 420.5 623.5Q387 662 333 664Q310 666 285.0 665.5Q260 665 242.0 665.0Q224 665 222 665Q222 666 219.5 674.5Q217 683 214.5 691.5Q212 700 212 700ZM225 700V0H132V700ZM135 73V0H55V10Q55 10 61.5 10.0Q68 10 68 10Q94 10 112.5 28.5Q131 47 132 73ZM135 627H132Q131 653 112.5 671.5Q94 690 68 690Q68 690 61.5 690.0Q55 690 55 690V700H135ZM222 73H225Q225 47 244.0 28.5Q263 10 289 10Q290 10 295.5 10.0Q301 10 301 10V0H222Z"/><path transform="translate(889.19,468.00) scale(0.03000,-0.03000)" d="M171 699 370 332 294 304 57 699ZM381 322V0H288V322ZM553 699H620L373 301L332 312ZM512 628Q521 642 517.0 656.5Q513 671 502.0 680.5Q491 690 477 690Q477 690 471.0 690.0Q465 690 465 690V700H693V690H679Q648 690 621.0 672.0Q594 654 578 631ZM209 628 97 631Q83 654 56.0 672.0Q29 690 -3 690H-17V700H257V690Q257 690 250.5 690.0Q244 690 244 690Q222 690 210.5 669.5Q199 649 209 628ZM290 73V0H211V10Q211 10 217.0 10.0Q223 10 224 10Q250 10 268.5 28.5Q287 47 288 73ZM378 73H381Q381 47 400.0 28.5Q419 10 445 10Q445 10 451.0 10.0Q457 10 457 10V0H378Z"/></g>
  <g fill="#7E8794"><path transform="translate(398.25,508.00) scale(0.01700,-0.01700)" d="M359 714 655 6H570L339 619ZM144 73Q137 53 142.0 39.0Q147 25 158.5 17.5Q170 10 182 10H191V0H-10V10Q-10 10 -5.5 10.0Q-1 10 -1 10Q22 10 46.5 24.5Q71 39 87 73ZM359 714 368 644 117 3H57L313 611Q313 611 318.5 623.5Q324 636 331.5 654.0Q339 672 344.5 689.0Q350 706 350 714ZM500 273V243H187V273ZM545 73H627Q642 39 667.0 24.5Q692 10 715 10Q715 10 719.0 10.0Q723 10 723 10V0H498V10H507Q526 10 541.0 26.5Q556 43 545 73Z"/><path transform="translate(416.35,508.00) scale(0.01700,-0.01700)" d="M189 700H321Q385 700 431.0 677.0Q477 654 502.0 610.5Q527 567 527 507Q527 461 509.0 424.5Q491 388 461.0 363.0Q431 338 393.0 325.5Q355 313 314.5 316.0Q274 319 236 339V349Q236 349 253.0 346.5Q270 344 296.5 345.5Q323 347 352.5 356.5Q382 366 407.5 390.0Q433 414 446 457Q449 468 451.0 484.5Q453 501 452 517Q451 586 416.0 628.0Q381 670 317 670H199Q199 670 196.5 677.5Q194 685 191.5 692.5Q189 700 189 700ZM202 700V0H137V700ZM140 73V0H60V10Q60 10 66.5 10.0Q73 10 73 10Q99 10 117.5 28.5Q136 47 137 73ZM140 627H137Q137 653 118.0 671.5Q99 690 73 690Q73 690 67.0 690.0Q61 690 61 690L60 700H140ZM199 73H202Q203 47 221.5 28.5Q240 10 266 10Q266 10 272.5 10.0Q279 10 279 10V0H199Z"/><path transform="translate(432.16,508.00) scale(0.01700,-0.01700)" d="M189 700H321Q385 700 431.0 677.0Q477 654 502.0 610.5Q527 567 527 507Q527 461 509.0 424.5Q491 388 461.0 363.0Q431 338 393.0 325.5Q355 313 314.5 316.0Q274 319 236 339V349Q236 349 253.0 346.5Q270 344 296.5 345.5Q323 347 352.5 356.5Q382 366 407.5 390.0Q433 414 446 457Q449 468 451.0 484.5Q453 501 452 517Q451 586 416.0 628.0Q381 670 317 670H199Q199 670 196.5 677.5Q194 685 191.5 692.5Q189 700 189 700ZM202 700V0H137V700ZM140 73V0H60V10Q60 10 66.5 10.0Q73 10 73 10Q99 10 117.5 28.5Q136 47 137 73ZM140 627H137Q137 653 118.0 671.5Q99 690 73 690Q73 690 67.0 690.0Q61 690 61 690L60 700H140ZM199 73H202Q203 47 221.5 28.5Q240 10 266 10Q266 10 272.5 10.0Q279 10 279 10V0H199Z"/><path transform="translate(447.97,508.00) scale(0.01700,-0.01700)" d="M202 700V0H137V700ZM472 31V0H199V31ZM533 162 475 0H309L345 31Q398 31 431.5 47.5Q465 64 486.0 94.0Q507 124 523 162ZM140 73V0H60V10Q60 10 66.5 10.0Q73 10 73 10Q99 10 117.5 28.5Q136 47 137 73ZM140 627H137Q136 653 117.5 671.5Q99 690 73 690Q73 690 66.5 690.0Q60 690 60 690V700H140ZM199 627V700H279V690Q278 690 272.0 690.0Q266 690 266 690Q240 690 221.5 671.5Q203 653 202 627Z"/><path transform="translate(463.53,508.00) scale(0.01700,-0.01700)" d="M202 700V0H137V700ZM472 31V0H199V31ZM429 360V330H199V360ZM472 700V669H199V700ZM533 162 475 0H309L345 31Q398 31 431.5 47.5Q465 64 486.0 94.0Q507 124 523 162ZM429 332V266H419V281Q419 301 405.0 315.5Q391 330 371 330V332ZM429 424V358H371V360Q391 361 405.0 375.5Q419 390 419 410V424ZM472 672V592H462V610Q462 634 445.0 651.5Q428 669 403 670V672ZM472 718V689L350 700Q372 700 396.5 703.0Q421 706 442.0 710.0Q463 714 472 718ZM140 73V0H60V10Q60 10 66.5 10.0Q73 10 73 10Q99 10 117.5 28.5Q136 47 137 73ZM140 627H137Q137 653 118.0 671.5Q99 690 73 690Q73 690 67.0 690.0Q61 690 61 690L60 700H140Z"/><path transform="translate(489.58,508.00) scale(0.01700,-0.01700)" d="M189 700H321Q385 700 431.0 677.0Q477 654 502.0 610.5Q527 567 527 507Q527 461 509.0 424.5Q491 388 461.0 363.0Q431 338 393.0 325.5Q355 313 314.5 316.0Q274 319 236 339V349Q236 349 253.0 346.5Q270 344 296.5 345.5Q323 347 352.5 356.5Q382 366 407.5 390.0Q433 414 446 457Q449 468 451.0 484.5Q453 501 452 517Q451 586 416.0 628.0Q381 670 317 670H199Q199 670 196.5 677.5Q194 685 191.5 692.5Q189 700 189 700ZM202 700V0H137V700ZM140 73V0H60V10Q60 10 66.5 10.0Q73 10 73 10Q99 10 117.5 28.5Q136 47 137 73ZM140 627H137Q137 653 118.0 671.5Q99 690 73 690Q73 690 67.0 690.0Q61 690 61 690L60 700H140ZM199 73H202Q203 47 221.5 28.5Q240 10 266 10Q266 10 272.5 10.0Q279 10 279 10V0H199Z"/><path transform="translate(505.39,508.00) scale(0.01700,-0.01700)" d="M202 700V0H137V700ZM472 31V0H199V31ZM533 162 475 0H309L345 31Q398 31 431.5 47.5Q465 64 486.0 94.0Q507 124 523 162ZM140 73V0H60V10Q60 10 66.5 10.0Q73 10 73 10Q99 10 117.5 28.5Q136 47 137 73ZM140 627H137Q136 653 117.5 671.5Q99 690 73 690Q73 690 66.5 690.0Q60 690 60 690V700H140ZM199 627V700H279V690Q278 690 272.0 690.0Q266 690 266 690Q240 690 221.5 671.5Q203 653 202 627Z"/><path transform="translate(520.95,508.00) scale(0.01700,-0.01700)" d="M359 714 655 6H570L339 619ZM144 73Q137 53 142.0 39.0Q147 25 158.5 17.5Q170 10 182 10H191V0H-10V10Q-10 10 -5.5 10.0Q-1 10 -1 10Q22 10 46.5 24.5Q71 39 87 73ZM359 714 368 644 117 3H57L313 611Q313 611 318.5 623.5Q324 636 331.5 654.0Q339 672 344.5 689.0Q350 706 350 714ZM500 273V243H187V273ZM545 73H627Q642 39 667.0 24.5Q692 10 715 10Q715 10 719.0 10.0Q723 10 723 10V0H498V10H507Q526 10 541.0 26.5Q556 43 545 73Z"/><path transform="translate(539.05,508.00) scale(0.01700,-0.01700)" d="M342 697V0H277V697ZM599 701V671H20V701ZM599 674V593L589 594V611Q589 636 571.5 653.0Q554 670 530 671V674ZM599 719V690L477 701Q499 701 523.5 704.0Q548 707 569.0 711.0Q590 715 599 719ZM280 73V0H200V10Q200 10 206.5 10.0Q213 10 213 10Q239 10 257.5 28.5Q276 47 277 73ZM339 73H342Q343 47 361.5 28.5Q380 10 406 10Q406 10 412.5 10.0Q419 10 419 10V0H339ZM89 674V671Q64 670 47.0 653.0Q30 636 30 611V594L20 593V674ZM20 719Q30 715 50.5 711.0Q71 707 96.0 704.0Q121 701 142 701L20 690Z"/><path transform="translate(555.56,508.00) scale(0.01700,-0.01700)" d="M202 700V0H137V700ZM429 360V330H199V360ZM472 700V669H199V700ZM429 332V266H419V281Q419 301 405.0 315.5Q391 330 371 330V332ZM429 424V358H371V360Q391 361 405.0 375.5Q419 390 419 410V424ZM472 672V605H462V620Q462 640 447.5 654.5Q433 669 413 669V672ZM472 718V689L350 700Q372 700 396.5 703.0Q421 706 442.0 710.0Q463 714 472 718ZM140 73V0H60V10Q60 10 66.5 10.0Q73 10 73 10Q99 10 117.5 28.5Q136 47 137 73ZM140 627H137Q137 653 118.0 671.5Q99 690 73 690Q73 690 67.0 690.0Q61 690 61 690L60 700H140ZM199 73H202Q203 47 221.5 28.5Q240 10 266 10Q266 10 272.0 10.0Q278 10 279 10V0H199Z"/><path transform="translate(570.75,508.00) scale(0.01700,-0.01700)" d="M429 714Q536 714 617.0 668.5Q698 623 743.5 541.0Q789 459 789 350Q789 241 743.5 159.0Q698 77 617.0 31.5Q536 -14 429 -14Q323 -14 242.0 31.5Q161 77 115.5 159.0Q70 241 70 350Q70 459 115.5 541.0Q161 623 242.0 668.5Q323 714 429 714ZM429 16Q514 16 577.5 58.0Q641 100 676.5 175.0Q712 250 712 350Q712 450 676.5 525.0Q641 600 577.5 642.0Q514 684 429 684Q345 684 281.5 642.0Q218 600 182.5 525.0Q147 450 147 350Q147 250 182.5 175.0Q218 100 281.5 58.0Q345 16 429 16Z"/><path transform="translate(591.00,508.00) scale(0.01700,-0.01700)" d="M189 700H330Q375 700 411.5 687.0Q448 674 473.0 649.5Q498 625 511.5 590.5Q525 556 525 512Q525 464 502.5 420.0Q480 376 441.5 348.5Q403 321 355 321Q372 314 392.0 292.5Q412 271 427 251Q427 251 440.5 231.5Q454 212 474.5 184.0Q495 156 516.0 129.0Q537 102 552 86Q572 64 592.0 47.0Q612 30 635.5 20.0Q659 10 688 10V0H633Q587 0 553.5 14.0Q520 28 497.0 48.5Q474 69 458 88Q455 92 441.5 111.0Q428 130 409.5 156.5Q391 183 373.0 209.0Q355 235 342.0 253.5Q329 272 327 275Q308 300 285.0 321.0Q262 342 235 342V352Q235 352 250.5 351.5Q266 351 288 352Q314 353 345.0 360.0Q376 367 403.0 389.0Q430 411 444 456Q447 467 449.0 483.5Q451 500 450 516Q449 584 415.5 624.5Q382 665 326 668Q298 670 268.5 669.5Q239 669 219.0 669.0Q199 669 199 669Q199 670 196.5 677.5Q194 685 191.5 692.5Q189 700 189 700ZM202 700V0H137V700ZM140 73V0H60V10Q60 10 66.5 10.0Q73 10 73 10Q99 10 117.5 28.5Q136 47 137 73ZM140 627H137Q136 653 117.5 671.5Q99 690 73 690Q73 690 66.5 690.0Q60 690 60 690V700H140ZM199 73H202Q202 47 221.0 28.5Q240 10 266 10Q266 10 272.0 10.0Q278 10 278 10V0H199Z"/><path transform="translate(608.51,508.00) scale(0.01700,-0.01700)" d="M741 714 749 647 498 88Q498 88 490.5 71.0Q483 54 475.0 30.5Q467 7 464 -14H454L440 49ZM126 73V0H15V10Q16 10 23.5 10.0Q31 10 31 10Q58 10 79.0 26.5Q100 43 104 73ZM155 57Q155 56 155.0 55.0Q155 54 155 52Q155 36 166.5 22.5Q178 9 194 9H209V0H148V57ZM179 714H189L209 655L150 0H96ZM189 714 477 91 454 -14 170 602ZM750 714 836 0H758L703 606L741 714ZM806 73H827Q832 43 853.0 26.5Q874 10 900 10Q900 10 908.0 10.0Q916 10 916 10V0H806ZM753 57H760V0H699V9H714Q731 9 742.0 22.5Q753 36 753 52Q753 54 753.0 55.0Q753 56 753 57Z"/><path transform="translate(630.34,508.00) scale(0.01700,-0.01700)" d="M251 714Q267 714 285.5 712.0Q304 710 321.5 706.5Q339 703 353.5 699.5Q368 696 376 692V581H367Q367 629 334.0 656.5Q301 684 254 684Q199 684 165.0 649.5Q131 615 131 569Q131 550 139.5 524.5Q148 499 171 477L368 295Q398 267 408.0 235.0Q418 203 418 173Q418 90 367.5 38.0Q317 -14 231 -14Q207 -14 174.5 -9.0Q142 -4 111.5 8.5Q81 21 61 41Q58 57 58.0 81.0Q58 105 62.0 131.5Q66 158 73 180H82Q77 129 95.0 91.0Q113 53 147.5 33.5Q182 14 226 16Q281 19 320.5 54.5Q360 90 360 150Q360 179 350.0 202.5Q340 226 321 243L129 421Q99 449 87.0 482.5Q75 516 75 545Q75 587 95.0 626.0Q115 665 154.5 689.5Q194 714 251 714ZM376 704V683H300V704Z"/><path transform="translate(654.66,508.00) scale(0.01700,-0.01700)" d="M85 305Q66 305 53.0 318.0Q40 331 40 350Q40 369 53.0 382.0Q66 395 85 395Q104 395 117.0 382.0Q130 369 130 350Q130 331 117.0 318.0Q104 305 85 305Z"/><path transform="translate(673.80,508.00) scale(0.01700,-0.01700)" d="M251 714Q267 714 285.5 712.0Q304 710 321.5 706.5Q339 703 353.5 699.5Q368 696 376 692V581H367Q367 629 334.0 656.5Q301 684 254 684Q199 684 165.0 649.5Q131 615 131 569Q131 550 139.5 524.5Q148 499 171 477L368 295Q398 267 408.0 235.0Q418 203 418 173Q418 90 367.5 38.0Q317 -14 231 -14Q207 -14 174.5 -9.0Q142 -4 111.5 8.5Q81 21 61 41Q58 57 58.0 81.0Q58 105 62.0 131.5Q66 158 73 180H82Q77 129 95.0 91.0Q113 53 147.5 33.5Q182 14 226 16Q281 19 320.5 54.5Q360 90 360 150Q360 179 350.0 202.5Q340 226 321 243L129 421Q99 449 87.0 482.5Q75 516 75 545Q75 587 95.0 626.0Q115 665 154.5 689.5Q194 714 251 714ZM376 704V683H300V704Z"/><path transform="translate(687.88,508.00) scale(0.01700,-0.01700)" d="M63 694H144L330 97L313 -12ZM511 716 519 635 343 99Q343 99 338.0 81.5Q333 64 328.0 38.5Q323 13 322 -12H313L295 77L502 716ZM511 715 721 126 699 -12 477 607ZM917 694 730 99Q730 99 725.0 81.0Q720 63 714.5 37.5Q709 12 708 -12H699L687 87L861 694ZM842 628Q850 658 837.0 674.0Q824 690 804 690H795V700H992V690Q992 690 988.0 690.0Q984 690 984 690Q961 690 934.0 675.5Q907 661 896 628ZM165 628H86Q74 661 47.5 675.5Q21 690 -2 690Q-2 690 -6.0 690.0Q-10 690 -10 690V700H212V690H203Q184 690 169.5 674.0Q155 658 165 628Z"/><path transform="translate(710.57,508.00) scale(0.01700,-0.01700)" d="M202 700V0H137V700ZM140 73V0H60V10Q60 10 66.5 10.0Q73 10 73 10Q99 10 117.5 28.5Q136 47 137 73ZM140 627H137Q136 653 117.5 671.5Q99 690 73 690Q73 690 66.5 690.0Q60 690 60 690V700H140ZM199 73H202Q203 47 221.5 28.5Q240 10 266 10Q266 10 272.0 10.0Q278 10 279 10V0H199ZM199 627V700H279V690Q278 690 272.0 690.0Q266 690 266 690Q240 690 221.5 671.5Q203 653 202 627Z"/><path transform="translate(722.32,508.00) scale(0.01700,-0.01700)" d="M202 700V0H137V700ZM429 360V330H199V360ZM472 700V669H199V700ZM429 332V266H419V281Q419 301 405.0 315.5Q391 330 371 330V332ZM429 424V358H371V360Q391 361 405.0 375.5Q419 390 419 410V424ZM472 672V605H462V620Q462 640 447.5 654.5Q433 669 413 669V672ZM472 718V689L350 700Q372 700 396.5 703.0Q421 706 442.0 710.0Q463 714 472 718ZM140 73V0H60V10Q60 10 66.5 10.0Q73 10 73 10Q99 10 117.5 28.5Q136 47 137 73ZM140 627H137Q137 653 118.0 671.5Q99 690 73 690Q73 690 67.0 690.0Q61 690 61 690L60 700H140ZM199 73H202Q203 47 221.5 28.5Q240 10 266 10Q266 10 272.0 10.0Q278 10 279 10V0H199Z"/><path transform="translate(737.51,508.00) scale(0.01700,-0.01700)" d="M342 697V0H277V697ZM599 701V671H20V701ZM599 674V593L589 594V611Q589 636 571.5 653.0Q554 670 530 671V674ZM599 719V690L477 701Q499 701 523.5 704.0Q548 707 569.0 711.0Q590 715 599 719ZM280 73V0H200V10Q200 10 206.5 10.0Q213 10 213 10Q239 10 257.5 28.5Q276 47 277 73ZM339 73H342Q343 47 361.5 28.5Q380 10 406 10Q406 10 412.5 10.0Q419 10 419 10V0H339ZM89 674V671Q64 670 47.0 653.0Q30 636 30 611V594L20 593V674ZM20 719Q30 715 50.5 711.0Q71 707 96.0 704.0Q121 701 142 701L20 690Z"/><path transform="translate(764.27,508.00) scale(0.01700,-0.01700)" d="M189 700H321Q385 700 431.0 677.0Q477 654 502.0 610.5Q527 567 527 507Q527 461 509.0 424.5Q491 388 461.0 363.0Q431 338 393.0 325.5Q355 313 314.5 316.0Q274 319 236 339V349Q236 349 253.0 346.5Q270 344 296.5 345.5Q323 347 352.5 356.5Q382 366 407.5 390.0Q433 414 446 457Q449 468 451.0 484.5Q453 501 452 517Q451 586 416.0 628.0Q381 670 317 670H199Q199 670 196.5 677.5Q194 685 191.5 692.5Q189 700 189 700ZM202 700V0H137V700ZM140 73V0H60V10Q60 10 66.5 10.0Q73 10 73 10Q99 10 117.5 28.5Q136 47 137 73ZM140 627H137Q137 653 118.0 671.5Q99 690 73 690Q73 690 67.0 690.0Q61 690 61 690L60 700H140ZM199 73H202Q203 47 221.5 28.5Q240 10 266 10Q266 10 272.5 10.0Q279 10 279 10V0H199Z"/><path transform="translate(780.08,508.00) scale(0.01700,-0.01700)" d="M359 714 655 6H570L339 619ZM144 73Q137 53 142.0 39.0Q147 25 158.5 17.5Q170 10 182 10H191V0H-10V10Q-10 10 -5.5 10.0Q-1 10 -1 10Q22 10 46.5 24.5Q71 39 87 73ZM359 714 368 644 117 3H57L313 611Q313 611 318.5 623.5Q324 636 331.5 654.0Q339 672 344.5 689.0Q350 706 350 714ZM500 273V243H187V273ZM545 73H627Q642 39 667.0 24.5Q692 10 715 10Q715 10 719.0 10.0Q723 10 723 10V0H498V10H507Q526 10 541.0 26.5Q556 43 545 73Z"/><path transform="translate(798.18,508.00) scale(0.01700,-0.01700)" d="M710 292 698 135Q672 92 632.5 58.5Q593 25 539.5 5.5Q486 -14 417 -14Q313 -13 232.0 32.0Q151 77 105.5 158.5Q60 240 60 351Q60 460 105.0 541.5Q150 623 231.5 668.5Q313 714 423 714Q497 714 556.5 694.5Q616 675 660 646L680 505H671Q649 593 581.0 638.5Q513 684 423 684Q335 684 270.5 642.5Q206 601 170.5 526.5Q135 452 135 352Q135 252 170.5 177.0Q206 102 269.5 60.0Q333 18 417 16Q488 16 548.5 42.5Q609 69 650.0 129.5Q691 190 702 292Z"/><path transform="translate(817.10,508.00) scale(0.01700,-0.01700)" d="M289 385 573 51Q594 31 615.5 21.0Q637 11 668 10V0H625Q615 0 596.5 1.5Q578 3 556.5 8.5Q535 14 513.5 25.5Q492 37 475 57Q475 57 457.5 78.0Q440 99 412.5 132.0Q385 165 354.5 202.5Q324 240 296.5 273.0Q269 306 251.5 327.0Q234 348 234 348ZM578 693 279 348H234L509 693ZM647 700V691H643Q610 691 581.5 678.0Q553 665 533 642L470 644Q483 661 474.5 676.0Q466 691 446 691H436V700H643ZM202 700V0H137V700ZM140 73V0H60V10Q60 10 66.5 10.0Q73 10 73 10Q99 10 117.5 28.5Q136 47 137 73ZM140 627H137Q136 653 117.5 671.5Q99 690 73 690Q73 690 66.5 690.0Q60 690 60 690V700H140ZM199 73H202Q203 47 221.5 28.5Q240 10 266 10Q266 10 272.0 10.0Q278 10 279 10V0H199ZM199 627V700H279V690Q278 690 272.0 690.0Q266 690 266 690Q240 690 221.5 671.5Q203 653 202 627Z"/><path transform="translate(834.27,508.00) scale(0.01700,-0.01700)" d="M359 714 655 6H570L339 619ZM144 73Q137 53 142.0 39.0Q147 25 158.5 17.5Q170 10 182 10H191V0H-10V10Q-10 10 -5.5 10.0Q-1 10 -1 10Q22 10 46.5 24.5Q71 39 87 73ZM359 714 368 644 117 3H57L313 611Q313 611 318.5 623.5Q324 636 331.5 654.0Q339 672 344.5 689.0Q350 706 350 714ZM500 273V243H187V273ZM545 73H627Q642 39 667.0 24.5Q692 10 715 10Q715 10 719.0 10.0Q723 10 723 10V0H498V10H507Q526 10 541.0 26.5Q556 43 545 73Z"/><path transform="translate(852.38,508.00) scale(0.01700,-0.01700)" d="M709 280V115Q686 85 647.0 55.0Q608 25 551.5 5.5Q495 -14 419 -14Q313 -13 232.0 32.5Q151 78 105.5 159.5Q60 241 60 350Q60 459 105.5 541.0Q151 623 232.0 668.5Q313 714 419 714Q474 714 518.0 705.0Q562 696 597.5 680.5Q633 665 662 646L682 505H673Q658 563 623.5 602.5Q589 642 537.0 663.0Q485 684 419 684Q335 684 271.0 642.0Q207 600 171.0 525.0Q135 450 135 350Q135 250 171.0 175.0Q207 100 271.0 58.5Q335 17 419 16Q463 16 503.5 26.5Q544 37 580.0 56.5Q616 76 644 103L645 280Q645 325 594 325H578V335H774V325H759Q707 325 709 280Z"/><path transform="translate(871.94,508.00) scale(0.01700,-0.01700)" d="M202 700V0H137V700ZM472 31V0H199V31ZM429 360V330H199V360ZM472 700V669H199V700ZM533 162 475 0H309L345 31Q398 31 431.5 47.5Q465 64 486.0 94.0Q507 124 523 162ZM429 332V266H419V281Q419 301 405.0 315.5Q391 330 371 330V332ZM429 424V358H371V360Q391 361 405.0 375.5Q419 390 419 410V424ZM472 672V592H462V610Q462 634 445.0 651.5Q428 669 403 670V672ZM472 718V689L350 700Q372 700 396.5 703.0Q421 706 442.0 710.0Q463 714 472 718ZM140 73V0H60V10Q60 10 66.5 10.0Q73 10 73 10Q99 10 117.5 28.5Q136 47 137 73ZM140 627H137Q137 653 118.0 671.5Q99 690 73 690Q73 690 67.0 690.0Q61 690 61 690L60 700H140Z"/></g>
</svg>
